<svg width="48" height="48" viewBox="0 0 48 48" fill="none" xmlns="http://www.w3.org/2000/svg">
  <defs>
    <linearGradient id="toothGradient" x1="0%" y1="0%" x2="100%" y2="100%">
      <stop offset="0%" style="stop-color:#ffffff;stop-opacity:1" />
      <stop offset="50%" style="stop-color:#f8f9fa;stop-opacity:1" />
      <stop offset="100%" style="stop-color:#e9ecef;stop-opacity:1" />
    </linearGradient>
    <linearGradient id="sparkleGradient" x1="0%" y1="0%" x2="100%" y2="100%">
      <stop offset="0%" style="stop-color:#ffd700;stop-opacity:1" />
      <stop offset="100%" style="stop-color:#ffed4e;stop-opacity:1" />
    </linearGradient>
    <filter id="glow" x="-50%" y="-50%" width="200%" height="200%">
      <feGaussianBlur stdDeviation="2" result="coloredBlur"/>
      <feMerge> 
        <feMergeNode in="coloredBlur"/>
        <feMergeNode in="SourceGraphic"/> 
      </feMerge>
    </filter>
    <filter id="shadow" x="-20%" y="-20%" width="140%" height="140%">
      <feDropShadow dx="1" dy="1" stdDeviation="1" flood-color="rgba(0,0,0,0.1)"/>
    </filter>
  </defs>
  
  <!-- Perfect smile - multiple teeth -->
  <g filter="url(#shadow)">
    <!-- Central teeth -->
    <path d="M20 12C22 12 24 13 24 16C24 19 23 22 22 25C21 28 20 31 20 34C20 31 19 28 18 25C17 22 16 19 16 16C16 13 18 12 20 12Z" fill="url(#toothGradient)" stroke="#e0e0e0" stroke-width="0.5"/>
    <path d="M28 12C30 12 32 13 32 16C32 19 31 22 30 25C29 28 28 31 28 34C28 31 27 28 26 25C25 22 24 19 24 16C24 13 26 12 28 12Z" fill="url(#toothGradient)" stroke="#e0e0e0" stroke-width="0.5"/>
    
    <!-- Side teeth -->
    <path d="M12 14C14 14 15 15 15 17C15 19 14.5 21 14 23C13.5 25 13 27 13 29C13 27 12.5 25 12 23C11.5 21 11 19 11 17C11 15 11.5 14 12 14Z" fill="url(#toothGradient)" stroke="#e0e0e0" stroke-width="0.5" opacity="0.9"/>
    <path d="M36 14C37.5 14 37 15 37 17C37 19 36.5 21 36 23C35.5 25 35 27 35 29C35 27 34.5 25 34 23C33.5 21 33 19 33 17C33 15 34.5 14 36 14Z" fill="url(#toothGradient)" stroke="#e0e0e0" stroke-width="0.5" opacity="0.9"/>
  </g>
  
  <!-- Shine effects on teeth -->
  <ellipse cx="20" cy="16" rx="2" ry="1.5" fill="#ffffff" opacity="0.7"/>
  <ellipse cx="28" cy="16" rx="2" ry="1.5" fill="#ffffff" opacity="0.7"/>
  
  <!-- Sparkle effects -->
  <g filter="url(#glow)">
    <!-- Large sparkles -->
    <g transform="translate(8, 8)">
      <path d="M0,-4 L1,-1 L4,0 L1,1 L0,4 L-1,1 L-4,0 L-1,-1 Z" fill="url(#sparkleGradient)"/>
    </g>
    <g transform="translate(40, 10)">
      <path d="M0,-3 L0.8,-0.8 L3,0 L0.8,0.8 L0,3 L-0.8,0.8 L-3,0 L-0.8,-0.8 Z" fill="url(#sparkleGradient)"/>
    </g>
    <g transform="translate(6, 38)">
      <path d="M0,-2.5 L0.6,-0.6 L2.5,0 L0.6,0.6 L0,2.5 L-0.6,0.6 L-2.5,0 L-0.6,-0.6 Z" fill="url(#sparkleGradient)"/>
    </g>
    <g transform="translate(42, 36)">
      <path d="M0,-3 L0.8,-0.8 L3,0 L0.8,0.8 L0,3 L-0.8,0.8 L-3,0 L-0.8,-0.8 Z" fill="url(#sparkleGradient)"/>
    </g>
    
    <!-- Small sparkles -->
    <circle cx="14" cy="6" r="1" fill="url(#sparkleGradient)" opacity="0.8"/>
    <circle cx="34" cy="8" r="0.8" fill="url(#sparkleGradient)" opacity="0.9"/>
    <circle cx="10" cy="30" r="0.6" fill="url(#sparkleGradient)" opacity="0.7"/>
    <circle cx="38" cy="28" r="0.8" fill="url(#sparkleGradient)" opacity="0.8"/>
    <circle cx="24" cy="6" r="0.5" fill="url(#sparkleGradient)" opacity="0.9"/>
  </g>
  
  <!-- Whitening beam effect -->
  <path d="M24 2 L26 8 L24 8 L22 8 Z" fill="url(#sparkleGradient)" opacity="0.6"/>
  <path d="M24 40 L26 46 L24 46 L22 46 Z" fill="url(#sparkleGradient)" opacity="0.6"/>
</svg>