<svg xmlns="http://www.w3.org/2000/svg" viewBox="0 0 100 100" width="100" height="100">
  <!-- Dental Implant Icon -->
  <defs>
    <linearGradient id="toothGradient" x1="0%" y1="0%" x2="100%" y2="100%">
      <stop offset="0%" style="stop-color:#ffffff;stop-opacity:1" />
      <stop offset="100%" style="stop-color:#f0f0f0;stop-opacity:1" />
    </linearGradient>
    <linearGradient id="implantGradient" x1="0%" y1="0%" x2="100%" y2="100%">
      <stop offset="0%" style="stop-color:#c0c0c0;stop-opacity:1" />
      <stop offset="100%" style="stop-color:#808080;stop-opacity:1" />
    </linearGradient>
    <linearGradient id="crownGradient" x1="0%" y1="0%" x2="100%" y2="100%">
      <stop offset="0%" style="stop-color:#ffffff;stop-opacity:1" />
      <stop offset="100%" style="stop-color:#e8e8e8;stop-opacity:1" />
    </linearGradient>
  </defs>
  
  <!-- Background circle -->
  <circle cx="50" cy="50" r="45" fill="none" stroke="#2c5f66" stroke-width="2" opacity="0.3"/>
  
  <!-- Gum line -->
  <ellipse cx="50" cy="45" rx="35" ry="8" fill="#ffb3ba" opacity="0.7"/>
  
  <!-- Implant screw (titanium) -->
  <rect x="47" y="50" width="6" height="25" fill="url(#implantGradient)" rx="3"/>
  
  <!-- Implant threads -->
  <line x1="45" y1="55" x2="55" y2="55" stroke="#606060" stroke-width="0.5"/>
  <line x1="45" y1="60" x2="55" y2="60" stroke="#606060" stroke-width="0.5"/>
  <line x1="45" y1="65" x2="55" y2="65" stroke="#606060" stroke-width="0.5"/>
  <line x1="45" y1="70" x2="55" y2="70" stroke="#606060" stroke-width="0.5"/>
  
  <!-- Abutment -->
  <rect x="48" y="45" width="4" height="8" fill="#a0a0a0" rx="1"/>
  
  <!-- Crown (artificial tooth) -->
  <path d="M 35 25 Q 35 15 50 15 Q 65 15 65 25 L 65 40 Q 65 48 50 48 Q 35 48 35 40 Z" fill="url(#crownGradient)" stroke="#d0d0d0" stroke-width="1"/>
  
  <!-- Crown details -->
  <path d="M 40 25 Q 40 20 45 20 Q 50 20 50 25" fill="none" stroke="#e0e0e0" stroke-width="0.5"/>
  <path d="M 50 25 Q 50 20 55 20 Q 60 20 60 25" fill="none" stroke="#e0e0e0" stroke-width="0.5"/>
  
  <!-- Highlight on crown -->
  <ellipse cx="45" cy="30" rx="3" ry="8" fill="#ffffff" opacity="0.6"/>
  
  <!-- Bone structure indication -->
  <path d="M 25 75 Q 50 70 75 75 L 75 85 Q 50 80 25 85 Z" fill="#f5f5dc" opacity="0.5"/>
  
  <!-- Small plus sign to indicate medical/dental -->
  <g transform="translate(75, 25)">
    <circle cx="0" cy="0" r="8" fill="#1fd8d8" opacity="0.8"/>
    <line x1="-4" y1="0" x2="4" y2="0" stroke="white" stroke-width="2"/>
    <line x1="0" y1="-4" x2="0" y2="4" stroke="white" stroke-width="2"/>
  </g>
</svg>