<svg width="48" height="48" viewBox="0 0 48 48" fill="none" xmlns="http://www.w3.org/2000/svg">
  <defs>
    <linearGradient id="toothGradient" x1="0%" y1="0%" x2="100%" y2="100%">
      <stop offset="0%" style="stop-color:#ffffff;stop-opacity:1" />
      <stop offset="100%" style="stop-color:#f0f8ff;stop-opacity:1" />
    </linearGradient>
    <linearGradient id="toolGradient" x1="0%" y1="0%" x2="100%" y2="100%">
      <stop offset="0%" style="stop-color:#4a90e2;stop-opacity:1" />
      <stop offset="100%" style="stop-color:#357abd;stop-opacity:1" />
    </linearGradient>
    <filter id="shadow" x="-20%" y="-20%" width="140%" height="140%">
      <feDropShadow dx="2" dy="2" stdDeviation="2" flood-color="rgba(0,0,0,0.2)"/>
    </filter>
  </defs>
  
  <!-- Main tooth shape -->
  <path d="M24 8C28 8 32 10 32 14C32 18 30 22 28 26C26 30 24 34 24 38C24 34 22 30 20 26C18 22 16 18 16 14C16 10 20 8 24 8Z" fill="url(#toothGradient)" stroke="#e0e0e0" stroke-width="1" filter="url(#shadow)"/>
  
  <!-- Tooth crown detail -->
  <ellipse cx="24" cy="12" rx="6" ry="3" fill="#ffffff" opacity="0.8"/>
  
  <!-- Dental mirror -->
  <circle cx="36" cy="12" r="4" fill="url(#toolGradient)" stroke="#2c5aa0" stroke-width="1"/>
  <circle cx="36" cy="12" r="3" fill="#ffffff" opacity="0.3"/>
  <line x1="32" y1="16" x2="28" y2="20" stroke="#2c5aa0" stroke-width="2" stroke-linecap="round"/>
  
  <!-- Dental probe -->
  <line x1="12" y1="36" x2="18" y2="30" stroke="url(#toolGradient)" stroke-width="2" stroke-linecap="round"/>
  <circle cx="12" cy="36" r="2" fill="url(#toolGradient)"/>
  
  <!-- Sparkle effects -->
  <circle cx="20" cy="16" r="1" fill="#4a90e2" opacity="0.8"/>
  <circle cx="28" cy="18" r="1" fill="#4a90e2" opacity="0.6"/>
  <circle cx="26" cy="14" r="0.5" fill="#ffffff"/>
  
  <!-- Medical cross -->
  <g transform="translate(38, 32)">
    <rect x="-1" y="-3" width="2" height="6" fill="#e74c3c"/>
    <rect x="-3" y="-1" width="6" height="2" fill="#e74c3c"/>
  </g>
</svg>